<svg xmlns="http://www.w3.org/2000/svg" viewBox="0 0 354 324"><path d="M50.449 49.25c.278 3.438.756 14.125 1.063 23.75 1.089 34.176 2.946 34.258 6.549.292 1.696-15.987 1.396-15.853 17.506-7.833C82.68 69.001 96.825 76.025 107 81.069c10.175 5.044 20.188 10.027 22.25 11.074 2.193 1.113 3.75 2.635 3.75 3.665 0 1.874-.994 2.551-13.5 9.189-4.4 2.335-8.675 4.801-9.5 5.48-.825.678-4.65 2.818-8.5 4.755-3.85 1.937-9.25 4.914-12 6.616s-7.651 4.57-10.891 6.373-6.615 3.746-7.5 4.316c-.885.57-3.859 2.279-6.609 3.798-2.75 1.519-7.475 4.29-10.5 6.157-3.025 1.867-7.843 4.608-10.707 6.092-2.864 1.484-6.689 3.962-8.5 5.507l-3.293 2.808 3.564 3.329c5.58 5.212 32.873 28.676 40.446 34.772 3.759 3.025 9.804 7.975 13.435 11 3.631 3.025 8.036 6.513 9.788 7.75 5.079 3.587 7.181 2.788 3.017-1.146-1.237-1.169-4.275-4.546-6.75-7.504-2.475-2.959-5.45-6.329-6.61-7.49-1.161-1.16-5.836-6.385-10.389-11.61-4.553-5.225-10.032-11.3-12.175-13.5-13.257-13.611-13.348-12.936 2.923-21.677 6.463-3.472 13.821-7.44 16.351-8.818 2.53-1.378 8.155-4.404 12.5-6.725 4.345-2.322 9.025-4.88 10.4-5.686C117.694 123.91 129.97 117 130.372 117c.266 0 6.541-3.6 13.945-8s13.906-8 14.45-8c.543 0 1.606-.745 2.361-1.655.754-.91 2.881-2.286 4.726-3.057 4.067-1.7 2.784-3.939-3.564-6.218-2.085-.748-6.862-2.851-10.617-4.672-3.755-1.822-7.797-3.62-8.983-3.996-1.186-.377-5.538-2.229-9.673-4.116-13.435-6.134-15.453-7.016-20.017-8.75-4.263-1.619-24.039-10.106-30.5-13.089-1.65-.761-6.375-2.783-10.5-4.492s-8.918-3.748-10.651-4.531C59.616 45.641 57.505 45 56.658 45s-1.818-.45-2.158-1c-.34-.55-1.504-1-2.587-1-1.802 0-1.926.529-1.464 6.25m245.099-5.327c-.314.508-1.92 1.219-3.57 1.582-1.649.362-4.231 1.256-5.738 1.986-1.507.731-6.565 2.897-11.24 4.814-8.339 3.42-17.552 7.432-23.5 10.235-6.173 2.908-17.755 7.46-18.982 7.46-.7 0-1.833.675-2.518 1.5-.685.825-1.884 1.5-2.664 1.5-.781 0-4.213 1.3-7.628 2.888-14.618 6.799-28.475 12.948-31.998 14.198-5.767 2.046-7.702 4.586-4.439 5.827 1.394.53 2.858 1.487 3.254 2.127.396.64 2.297 1.823 4.226 2.629 1.928.806 6.419 3.235 9.98 5.398 3.56 2.163 6.798 3.933 7.195 3.933.397 0 2.937 1.575 5.645 3.5 2.707 1.925 5.221 3.5 5.586 3.5.365 0 3.967 1.872 8.003 4.16 4.037 2.288 9.14 5.129 11.34 6.312 13.093 7.045 20.159 11.1 21.321 12.236.727.711 1.695 1.292 2.151 1.292 2.09 0 31.16 16.379 32.063 18.065.86 1.608-.114 3.102-6.31 9.668-4.03 4.272-11.085 12.042-15.677 17.267-4.591 5.225-9.527 10.625-10.967 12-4.269 4.075-14.401 17.014-13.796 17.618.46.461 5.908-2.802 7.715-4.621 1.537-1.547 19.488-16.293 25.434-20.894 3.837-2.968 12.32-10.168 18.852-16 6.532-5.832 13.415-11.884 15.295-13.45 1.881-1.566 3.419-3.229 3.419-3.697 0-.951-6.763-5.448-18-11.968-4.125-2.394-8.175-4.891-9-5.548-.825-.658-4.425-2.774-8-4.703-3.575-1.929-9.2-5.106-12.5-7.06-3.3-1.954-10.725-6.121-16.5-9.259-5.775-3.139-12.75-7.138-15.5-8.887-2.75-1.749-7.925-4.654-11.5-6.457-10.826-5.458-13.29-9.031-7.269-10.543 1.512-.379 2.978-1.022 3.259-1.429.28-.407 5.91-3.314 12.51-6.46s13.125-6.391 14.5-7.211c1.375-.819 4.125-2.176 6.112-3.014 1.986-.838 9.826-4.649 17.421-8.47 17.152-8.626 16.648-8.841 18.368 7.817 3.483 33.719 5.23 33.384 6.591-1.264.302-7.7.796-17.487 1.097-21.75.515-7.278.426-7.75-1.461-7.75-1.106 0-2.267.415-2.58.923M98.023 160.215c.021 1.218 4.478 6.354 16.298 18.785 2.877 3.025 8.333 8.766 12.126 12.757l6.896 7.258.078 29.742c.087 32.755-.186 31.124 6.94 41.514 4.65 6.78 11.822 12.325 20.011 15.472 11.094 4.264 29.946 2.341 37.128-3.787 1.1-.938 2.969-2.205 4.152-2.814 2.634-1.356 10.951-12.257 12.888-16.891 2.376-5.688 3.189-19.726 2.272-39.251-1.073-22.847-1.01-23.194 5.458-30.014 19.931-21.013 30.879-33.171 30.348-33.701-.65-.65-10.526 5.799-14.112 9.215-3.16 3.009-17.108 14.294-25.232 20.413-8.616 6.489-7.931 3.842-9.297 35.93-1.361 31.962-3.417 37.879-15.403 44.332-6.147 3.309-21.486 3.283-26.868-.046-12.569-7.774-14.226-12.456-15.668-44.284-1.41-31.097-1.035-29.845-11.277-37.598-4.543-3.439-13.825-10.764-20.626-16.277-13.708-11.111-16.147-12.74-16.112-10.755" fill-rule="evenodd"/></svg>